custom-analysis
version=1
nRows=4
nColumns=98
inDegrees=no

This file contains tibia displacement and acting force.

Units are S.I. units (seconds, meters, Newtons, ...)
Angles are in degrees.

endheader
time	APT	SIT	knee_angle	aACL_R_force	pACL_R_force	aPCL_R_force	pPCL_R_force	aMCL_R_force	mMCL_R_force	pMCL_R_force	aLCL_R_force	mLCL_R_force	pLCL_R_force	aPCL_L_force	pPCL_L_force	aMCL_L_force	aLCL_L_force	aACL_R_length	pACL_R_length	aPCL_R_length	pPCL_R_length	aMCL_R_length	mMCL_R_length	pMCL_R_length	aLCL_R_length	mLCL_R_length	pLCL_R_length	aPCL_L_length	pPCL_L_length	aMCL_L_length	aLCL_L_length	aACL_R_strain	pACL_R_strain	aPCL_R_strain	pPCL_R_strain	aMCL_R_strain	mMCL_R_strain	pMCL_R_strain	aLCL_R_strain	mLCL_R_strain	pLCL_R_strain	aPCL_L_strain	pPCL_L_strain	aMCL_L_strain	aLCL_L_strain	femur_lat_meniscii_r.femur_lat_r.force.X	femur_lat_meniscii_r.femur_lat_r.force.Y	femur_lat_meniscii_r.femur_lat_r.force.Z	femur_lat_meniscii_r.femur_lat_r.torque.X	femur_lat_meniscii_r.femur_lat_r.torque.Y	femur_lat_meniscii_r.femur_lat_r.torque.Z	femur_lat_meniscii_r.meniscus_lat_r.force.X	femur_lat_meniscii_r.meniscus_lat_r.force.Y	femur_lat_meniscii_r.meniscus_lat_r.force.Z	femur_lat_meniscii_r.meniscus_lat_r.torque.X	femur_lat_meniscii_r.meniscus_lat_r.torque.Y	femur_lat_meniscii_r.meniscus_lat_r.torque.Z	femur_med_meniscii_r.femur_med_r.force.X	femur_med_meniscii_r.femur_med_r.force.Y	femur_med_meniscii_r.femur_med_r.force.Z	femur_med_meniscii_r.femur_med_r.torque.X	femur_med_meniscii_r.femur_med_r.torque.Y	femur_med_meniscii_r.femur_med_r.torque.Z	femur_med_meniscii_r.meniscus_med_r.force.X	femur_med_meniscii_r.meniscus_med_r.force.Y	femur_med_meniscii_r.meniscus_med_r.force.Z	femur_med_meniscii_r.meniscus_med_r.torque.X	femur_med_meniscii_r.meniscus_med_r.torque.Y	femur_med_meniscii_r.meniscus_med_r.torque.Z	femur_med_tibia_r.tibia_upper_r.force.X	femur_med_tibia_r.tibia_upper_r.force.Y	femur_med_tibia_r.tibia_upper_r.force.Z	femur_med_tibia_r.tibia_upper_r.torque.X	femur_med_tibia_r.tibia_upper_r.torque.Y	femur_med_tibia_r.tibia_upper_r.torque.Z	femur_med_tibia_r.femur_med_r.force.X	femur_med_tibia_r.femur_med_r.force.Y	femur_med_tibia_r.femur_med_r.force.Z	femur_med_tibia_r.femur_med_r.torque.X	femur_med_tibia_r.femur_med_r.torque.Y	femur_med_tibia_r.femur_med_r.torque.Z	femur_lat_tibia_r.tibia_upper_r.force.X	femur_lat_tibia_r.tibia_upper_r.force.Y	femur_lat_tibia_r.tibia_upper_r.force.Z	femur_lat_tibia_r.tibia_upper_r.torque.X	femur_lat_tibia_r.tibia_upper_r.torque.Y	femur_lat_tibia_r.tibia_upper_r.torque.Z	femur_lat_tibia_r.femur_lat_r.force.X	femur_lat_tibia_r.femur_lat_r.force.Y	femur_lat_tibia_r.femur_lat_r.force.Z	femur_lat_tibia_r.femur_lat_r.torque.X	femur_lat_tibia_r.femur_lat_r.torque.Y	femur_lat_tibia_r.femur_lat_r.torque.Z	femur_lat_meniscii_force_r	femur_med_meniscii_force_r	femur_lat_tibia_force_r	femur_med_tibia_force_r
      0.21437055	      0.01336639	      0.02695888	     83.62894343	     -0.99522376	      0.00000000	    998.58269605	    634.28893151	     23.20910056	     11.41508943	      0.00000000	      0.00000000	      0.00000000	      0.00000000	      0.00000000	      0.00000000	      0.00000001	      0.00000000	      0.03100956	      0.02451519	      0.03736146	      0.03410548	      0.06155614	      0.05994239	      0.05662947	      0.05001013	      0.04454640	      0.03959014	      0.01525851	      0.01651186	      0.06550154	      0.04489616	      0.00013109	     -0.02168953	      0.20151483	      0.14111721	      0.02547412	      0.00249007	     -0.03573298	     -0.10659817	     -0.20902872	     -0.24363580	      0.00000079	     -0.32847694	      0.00000060	     -0.00000086	    216.58731932	    129.41993234	     10.18692791	     -7.07636963	      5.00674238	     85.87911352	   -216.58731932	   -129.41993234	    -10.18692791	      3.37955567	     -5.83837939	      3.28549416	      0.00000000	      0.00000000	      0.00000000	      0.00000000	      0.00000000	      0.00000000	      0.00000000	      0.00000000	      0.00000000	      0.00000000	      0.00000000	      0.00000000	   -865.10050772	   -323.17341679	    301.93508193	     -7.18780970	     21.31470046	      2.43402263	    865.10050772	    323.17341679	   -301.93508193	    127.34707698	    -15.20962550	    348.37927268	   -260.94443718	   -105.09110254	    -68.71796539	      3.38042518	     -8.92853819	      0.82883833	    260.94443718	    105.09110254	     68.71796539	    -30.27293197	      6.37358231	    105.19806655	    252.51407738	      0.00000000	    289.58297239	    971.59906314
      0.21441364	      0.01336408	      0.02696700	     83.65206233	     -1.66047285	      0.00000000	   1000.20450510	    638.23391793	     23.97647543	     12.64899729	      0.00000000	      0.00000000	      0.00000000	      0.00000000	      0.00000000	      0.00000000	      0.00000001	      0.00000000	      0.03100945	      0.02451640	      0.03736328	      0.03410702	      0.06155725	      0.05994306	      0.05663063	      0.05000757	      0.04454360	      0.03958787	      0.01525851	      0.01651186	      0.06550154	      0.04489616	      0.00012750	     -0.02164100	      0.20157322	      0.14116873	      0.02549275	      0.00250135	     -0.03571332	     -0.10664391	     -0.20907837	     -0.24367929	      0.00000079	     -0.32847694	      0.00000060	     -0.00000086	    209.71164606	    131.03243231	     10.49687846	     -7.24276298	      4.85230038	     83.07991969	   -209.71164606	   -131.03243231	    -10.49687846	      3.42766620	     -5.67532904	      3.41376275	      0.00000000	      0.00000000	      0.00000000	      0.00000000	      0.00000000	      0.00000000	      0.00000000	      0.00000000	      0.00000000	      0.00000000	      0.00000000	      0.00000000	   -862.98277225	   -326.91915464	    301.86778113	     -7.22280312	     21.28658672	      2.61715410	    862.98277225	    326.91915464	   -301.86778113	    127.36803310	    -15.17817648	    347.47062128	   -260.56929953	   -106.68017393	    -68.97996509	      3.42056100	     -8.93139491	      0.90264842	    260.56929953	    106.68017393	     68.97996509	    -30.41298387	      6.36951786	    105.02228499	    247.50486312	      0.00000000	    289.88834911	    970.94776181
      0.21445673	      0.01336130	      0.02697493	     83.67509816	     -2.61115050	      0.00000000	   1003.08720684	    645.57109751	     25.83183808	     15.30989107	      0.00000000	      0.00000000	      0.00000000	      0.00000000	      0.00000000	      0.00000000	      0.00000001	      0.00000000	      0.03100920	      0.02451761	      0.03736543	      0.03410893	      0.06155848	      0.05994391	      0.05663199	      0.05000521	      0.04454102	      0.03958586	      0.01525851	      0.01651186	      0.06550154	      0.04489616	      0.00011934	     -0.02159304	      0.20164238	      0.14123240	      0.02551321	      0.00251542	     -0.03569014	     -0.10668620	     -0.20912423	     -0.24371772	      0.00000079	     -0.32847694	      0.00000060	     -0.00000086	    195.86023841	    132.64519575	     10.68523716	     -7.36360632	      4.53727463	     77.46230533	   -195.86023841	   -132.64519575	    -10.68523716	      3.47828708	     -5.33053957	      3.60303038	      0.00000000	      0.00000000	      0.00000000	      0.00000000	      0.00000000	      0.00000000	      0.00000000	      0.00000000	      0.00000000	      0.00000000	      0.00000000	      0.00000000	   -857.88628450	   -334.56715017	    301.10976290	     -7.29305442	     21.19842112	      2.98639784	    857.88628450	    334.56715017	   -301.10976290	    127.16103419	    -15.09812367	    345.30538093	   -259.30395459	   -109.10242059	    -69.36870973	      3.48184614	     -8.91848971	      1.02200957	    259.30395459	    109.10242059	     69.36870973	    -30.62212825	      6.34849809	    104.47187689	    236.79137492	      0.00000000	    289.74798866	    968.79881525
      0.21451126	      0.01335756	      0.02698482	     83.70421321	     -2.40603039	      0.00000000	   1004.20055853	    647.55468386	     26.72984614	     16.30434844	      0.00000000	      0.00000000	      0.00000000	      0.00000000	      0.00000000	      0.00000000	      0.00000001	      0.00000000	      0.03100885	      0.02451916	      0.03736835	      0.03411154	      0.06156013	      0.05994509	      0.05663385	      0.05000235	      0.04453789	      0.03958348	      0.01525851	      0.01651186	      0.06550154	      0.04489616	      0.00010796	     -0.02153114	      0.20173622	      0.14131995	      0.02554065	      0.00253525	     -0.03565843	     -0.10673729	     -0.20917967	     -0.24376307	      0.00000079	     -0.32847694	      0.00000060	     -0.00000086	    191.75911804	    131.94118104	     10.64620838	     -7.33375209	      4.44250186	     75.81089006	   -191.75911804	   -131.94118104	    -10.64620838	      3.46221249	     -5.22465112	      3.61651605	      0.00000000	      0.00000000	      0.00000000	      0.00000000	      0.00000000	      0.00000000	      0.00000000	      0.00000000	      0.00000000	      0.00000000	      0.00000000	      0.00000000	   -855.00163145	   -334.94700734	    300.96184288	     -7.28936850	     21.15782908	      3.05031756	    855.00163145	    334.94700734	   -300.96184288	    127.10341267	    -15.05457327	    344.12150164	   -258.88882370	   -109.11494885	    -69.32179255	      3.48072809	     -8.90798884	      1.03302515	    258.88882370	    109.11494885	     69.32179255	    -30.60290005	      6.33955331	    104.30011232	    233.00939113	      0.00000000	    289.37001576	    966.33085348
